ffmpeg started on 2025-05-12 at 20:05:17
Report written to "D:\Convert\FFMetrics\reports\psnr_report-6.txt"
Log level: 32
Command line:
ffmpeg -hide_banner -nostdin -i "G:\\\xc0\xed\xe8\xec\xe5\\\xce\xed\xe3\xee\xe8\xed\xe3\xe8\\!_35_\xcb\xe5\xf2\xee_2024\\DreamCast-1\\\xcf\xee\xeb\xf3\xed\xee\xf7\xed\xfb\xe9 \xf3\xe4\xe0\xf0\\[DC] Mayonaka Punch - 02_Telegram_HEVC.mkv" -i "G:\\\xc0\xed\xe8\xec\xe5\\\xce\xed\xe3\xee\xe8\xed\xe3\xe8\\!_35_\xcb\xe5\xf2\xee_2024\\DreamCast-1\\\xcf\xee\xeb\xf3\xed\xee\xf7\xed\xfb\xe9 \xf3\xe4\xe0\xf0\\[DC] Mayonaka Punch - 02_Telegram.mp4" -lavfi "[0:v]settb=AVTB,setpts=PTS-STARTPTS,format=pix_fmts=yuv420p10,fps=24000/1001,scale=1920:1080:flags=bicubic[main];[1:v]settb=AVTB,setpts=PTS-STARTPTS,format=pix_fmts=yuv420p,fps=24000/1001,scale=1920:1080:flags=bicubic[ref];[main][ref]psnr=eof_action=endall:stats_file='D\\:/Convert/FFMetrics/logs/psnr_logfile-6.txt'" -f null -
Input #0, matroska,webm, from 'G:\Аниме\Онгоинги\!_35_Лето_2024\DreamCast-1\Полуночный удар\[DC] Mayonaka Punch - 02_Telegram_HEVC.mkv':
  Metadata:
    COMPATIBLE_BRANDS: isomiso2avc1mp41
    MAJOR_BRAND     : isom
    MINOR_VERSION   : 512
    ENCODER         : Lavf61.7.100
  Duration: 00:23:47.76, start: -0.021000, bitrate: 1227 kb/s
  Stream #0:0: Video: hevc (Main 10), yuv420p10le(tv, bt709, progressive), 1920x1080 [SAR 1:1 DAR 16:9], 23.98 fps, 23.98 tbr, 1k tbn (default)
      Metadata:
        HANDLER_NAME    : VideoHandler
        VENDOR_ID       : [0][0][0][0]
        ENCODER         : Lavc61.19.100 libx265
        BPS             : 1031283
        DURATION        : 00:23:46.591708333
        NUMBER_OF_FRAMES: 34204
        NUMBER_OF_BYTES : 183902434
        _STATISTICS_WRITING_APP: mkvpropedit v66.0.0 ('Josie') 64-bit
        _STATISTICS_WRITING_DATE_UTC: 2025-05-10 10:12:12
        _STATISTICS_TAGS: BPS DURATION NUMBER_OF_FRAMES NUMBER_OF_BYTES
  Stream #0:1: Audio: aac (LC), 48000 Hz, stereo, fltp (default)
      Metadata:
        HANDLER_NAME    : SoundHandler
        VENDOR_ID       : [0][0][0][0]
        ENCODER         : Lavc61.19.100 aac
        BPS             : 192971
        DURATION        : 00:23:47.754000000
        NUMBER_OF_FRAMES: 66927
        NUMBER_OF_BYTES : 34439421
        _STATISTICS_WRITING_APP: mkvpropedit v66.0.0 ('Josie') 64-bit
        _STATISTICS_WRITING_DATE_UTC: 2025-05-10 10:12:12
        _STATISTICS_TAGS: BPS DURATION NUMBER_OF_FRAMES NUMBER_OF_BYTES
Input #1, mov,mp4,m4a,3gp,3g2,mj2, from 'G:\Аниме\Онгоинги\!_35_Лето_2024\DreamCast-1\Полуночный удар\[DC] Mayonaka Punch - 02_Telegram.mp4':
  Metadata:
    major_brand     : isom
    minor_version   : 512
    compatible_brands: isomiso2avc1mp41
    encoder         : Lavf61.1.100
  Duration: 00:23:47.72, start: 0.000000, bitrate: 3752 kb/s
  Stream #1:0[0x1](und): Video: h264 (High) (avc1 / 0x31637661), yuv420p(tv, bt709, progressive), 1920x1080 [SAR 1:1 DAR 16:9], 3607 kb/s, 23.98 fps, 23.98 tbr, 24k tbn (default)
      Metadata:
        handler_name    : VideoHandler
        vendor_id       : [0][0][0][0]
        encoder         : Lavc61.3.100 h264_qsv
  Stream #1:1[0x2](und): Audio: aac (HE-AACv2) (mp4a / 0x6134706D), 48000 Hz, stereo, fltp, 144 kb/s (default)
      Metadata:
        handler_name    : SoundHandler
        vendor_id       : [0][0][0][0]
Stream mapping:
  Stream #0:0 (hevc) -> settb:default
  Stream #1:0 (h264) -> settb:default
  psnr:default -> Stream #0:0 (wrapped_avframe)
  Stream #0:1 -> #0:1 (aac (native) -> pcm_s16le (native))
Output #0, null, to 'pipe:':
  Metadata:
    COMPATIBLE_BRANDS: isomiso2avc1mp41
    MAJOR_BRAND     : isom
    MINOR_VERSION   : 512
    encoder         : Lavf61.7.100
  Stream #0:0: Video: wrapped_avframe, yuv420p10le(tv, bt709, progressive), 1920x1080 [SAR 1:1 DAR 16:9], q=2-31, 200 kb/s, 23.98 fps, 23.98 tbn
      Metadata:
        encoder         : Lavc61.19.100 wrapped_avframe
  Stream #0:1: Audio: pcm_s16le, 48000 Hz, stereo, s16, 1536 kb/s (default)
      Metadata:
        HANDLER_NAME    : SoundHandler
        VENDOR_ID       : [0][0][0][0]
        _STATISTICS_TAGS: BPS DURATION NUMBER_OF_FRAMES NUMBER_OF_BYTES
        BPS             : 192971
        DURATION        : 00:23:47.754000000
        NUMBER_OF_FRAMES: 66927
        NUMBER_OF_BYTES : 34439421
        _STATISTICS_WRITING_APP: mkvpropedit v66.0.0 ('Josie') 64-bit
        _STATISTICS_WRITING_DATE_UTC: 2025-05-10 10:12:12
        encoder         : Lavc61.19.100 pcm_s16le
frame=  155 fps=0.0 q=-0.0 size=N/A time=00:00:06.46 bitrate=N/A speed=12.4x    frame=  405 fps=388 q=-0.0 size=N/A time=00:00:16.89 bitrate=N/A speed=16.2x    frame=  653 fps=421 q=-0.0 size=N/A time=00:00:27.23 bitrate=N/A speed=17.6x    frame=  910 fps=440 q=-0.0 size=N/A time=00:00:37.95 bitrate=N/A speed=18.3x    frame= 1165 fps=450 q=-0.0 size=N/A time=00:00:48.59 bitrate=N/A speed=18.8x    frame= 1426 fps=459 q=-0.0 size=N/A time=00:00:59.47 bitrate=N/A speed=19.2x    frame= 1644 fps=454 q=-0.0 size=N/A time=00:01:08.56 bitrate=N/A speed=18.9x    frame= 1895 fps=458 q=-0.0 size=N/A time=00:01:19.03 bitrate=N/A speed=19.1x    frame= 2125 fps=457 q=-0.0 size=N/A time=00:01:28.63 bitrate=N/A speed=19.1x    frame= 2350 fps=456 q=-0.0 size=N/A time=00:01:38.01 bitrate=N/A speed=  19x    frame= 2618 fps=461 q=-0.0 size=N/A time=00:01:49.19 bitrate=N/A speed=19.2x    frame= 2862 fps=462 q=-0.0 size=N/A time=00:01:59.36 bitrate=N/A speed=19.3x    frame= 2979 fps=445 q=-0.0 size=N/A time=00:02:04.24 bitrate=N/A speed=18.5x    frame= 3116 fps=431 q=-0.0 size=N/A time=00:02:09.96 bitrate=N/A speed=  18x    frame= 3368 fps=435 q=-0.0 size=N/A time=00:02:20.47 bitrate=N/A speed=18.1x    frame= 3592 fps=435 q=-0.0 size=N/A time=00:02:29.81 bitrate=N/A speed=18.2x    frame= 3810 fps=434 q=-0.0 size=N/A time=00:02:38.90 bitrate=N/A speed=18.1x    frame= 4071 fps=439 q=-0.0 size=N/A time=00:02:49.79 bitrate=N/A speed=18.3x    frame= 4301 fps=439 q=-0.0 size=N/A time=00:02:59.38 bitrate=N/A speed=18.3x    frame= 4575 fps=443 q=-0.0 size=N/A time=00:03:10.81 bitrate=N/A speed=18.5x    frame= 4745 fps=438 q=-0.0 size=N/A time=00:03:17.90 bitrate=N/A speed=18.3x    frame= 4886 fps=430 q=-0.0 size=N/A time=00:03:23.78 bitrate=N/A speed=  18x    frame= 5025 fps=423 q=-0.0 size=N/A time=00:03:29.58 bitrate=N/A speed=17.7x    frame= 5221 fps=422 q=-0.0 size=N/A time=00:03:37.75 bitrate=N/A speed=17.6x    frame= 5384 fps=418 q=-0.0 size=N/A time=00:03:44.55 bitrate=N/A speed=17.4x    frame= 5550 fps=414 q=-0.0 size=N/A time=00:03:51.48 bitrate=N/A speed=17.3x    frame= 5739 fps=412 q=-0.0 size=N/A time=00:03:59.36 bitrate=N/A speed=17.2x    frame= 5924 fps=410 q=-0.0 size=N/A time=00:04:07.08 bitrate=N/A speed=17.1x    frame= 6115 fps=409 q=-0.0 size=N/A time=00:04:15.04 bitrate=N/A speed=17.1x    frame= 6317 fps=408 q=-0.0 size=N/A time=00:04:23.47 bitrate=N/A speed=  17x    frame= 6505 fps=407 q=-0.0 size=N/A time=00:04:31.31 bitrate=N/A speed=  17x    frame= 6681 fps=405 q=-0.0 size=N/A time=00:04:38.65 bitrate=N/A speed=16.9x    frame= 6877 fps=404 q=-0.0 size=N/A time=00:04:46.82 bitrate=N/A speed=16.8x    frame= 7123 fps=406 q=-0.0 size=N/A time=00:04:57.08 bitrate=N/A speed=16.9x    frame= 7359 fps=408 q=-0.0 size=N/A time=00:05:06.93 bitrate=N/A speed=  17x    frame= 7585 fps=408 q=-0.0 size=N/A time=00:05:16.35 bitrate=N/A speed=  17x    frame= 7848 fps=411 q=-0.0 size=N/A time=00:05:27.32 bitrate=N/A speed=17.1x    frame= 8099 fps=413 q=-0.0 size=N/A time=00:05:37.79 bitrate=N/A speed=17.2x    frame= 8302 fps=413 q=-0.0 size=N/A time=00:05:46.26 bitrate=N/A speed=17.2x    frame= 8510 fps=412 q=-0.0 size=N/A time=00:05:54.93 bitrate=N/A speed=17.2x    frame= 8748 fps=414 q=-0.0 size=N/A time=00:06:04.86 bitrate=N/A speed=17.3x    frame= 9002 fps=415 q=-0.0 size=N/A time=00:06:15.45 bitrate=N/A speed=17.3x    frame= 9247 fps=417 q=-0.0 size=N/A time=00:06:25.67 bitrate=N/A speed=17.4x    frame= 9491 fps=418 q=-0.0 size=N/A time=00:06:35.85 bitrate=N/A speed=17.4x    frame= 9703 fps=418 q=-0.0 size=N/A time=00:06:44.69 bitrate=N/A speed=17.4x    frame= 9918 fps=418 q=-0.0 size=N/A time=00:06:53.66 bitrate=N/A speed=17.4x    frame=10148 fps=419 q=-0.0 size=N/A time=00:07:03.25 bitrate=N/A speed=17.5x    frame=10370 fps=419 q=-0.0 size=N/A time=00:07:12.51 bitrate=N/A speed=17.5x    frame=10614 fps=420 q=-0.0 size=N/A time=00:07:22.69 bitrate=N/A speed=17.5x    frame=10839 fps=420 q=-0.0 size=N/A time=00:07:32.07 bitrate=N/A speed=17.5x    frame=11051 fps=420 q=-0.0 size=N/A time=00:07:40.91 bitrate=N/A speed=17.5x    frame=11252 fps=420 q=-0.0 size=N/A time=00:07:49.30 bitrate=N/A speed=17.5x    frame=11479 fps=420 q=-0.0 size=N/A time=00:07:58.76 bitrate=N/A speed=17.5x    frame=11668 fps=419 q=-0.0 size=N/A time=00:08:06.65 bitrate=N/A speed=17.5x    frame=11861 fps=418 q=-0.0 size=N/A time=00:08:14.70 bitrate=N/A speed=17.4x    frame=12020 fps=416 q=-0.0 size=N/A time=00:08:21.33 bitrate=N/A speed=17.4x    frame=12259 fps=417 q=-0.0 size=N/A time=00:08:31.30 bitrate=N/A speed=17.4x    frame=12501 fps=418 q=-0.0 size=N/A time=00:08:41.39 bitrate=N/A speed=17.4x    frame=12756 fps=419 q=-0.0 size=N/A time=00:08:52.03 bitrate=N/A speed=17.5x    frame=12992 fps=420 q=-0.0 size=N/A time=00:09:01.87 bitrate=N/A speed=17.5x    frame=13215 fps=420 q=-0.0 size=N/A time=00:09:11.17 bitrate=N/A speed=17.5x    frame=13418 fps=420 q=-0.0 size=N/A time=00:09:19.64 bitrate=N/A speed=17.5x    frame=13637 fps=420 q=-0.0 size=N/A time=00:09:28.77 bitrate=N/A speed=17.5x    frame=13883 fps=421 q=-0.0 size=N/A time=00:09:39.03 bitrate=N/A speed=17.5x    frame=14143 fps=422 q=-0.0 size=N/A time=00:09:49.88 bitrate=N/A speed=17.6x    frame=14390 fps=423 q=-0.0 size=N/A time=00:10:00.18 bitrate=N/A speed=17.6x    frame=14628 fps=423 q=-0.0 size=N/A time=00:10:10.10 bitrate=N/A speed=17.7x    frame=14886 fps=424 q=-0.0 size=N/A time=00:10:20.87 bitrate=N/A speed=17.7x    frame=15131 fps=425 q=-0.0 size=N/A time=00:10:31.08 bitrate=N/A speed=17.7x    frame=15364 fps=426 q=-0.0 size=N/A time=00:10:40.80 bitrate=N/A speed=17.7x    frame=15601 fps=426 q=-0.0 size=N/A time=00:10:50.69 bitrate=N/A speed=17.8x    frame=15817 fps=426 q=-0.0 size=N/A time=00:10:59.70 bitrate=N/A speed=17.8x    frame=15998 fps=425 q=-0.0 size=N/A time=00:11:07.24 bitrate=N/A speed=17.7x    frame=16202 fps=425 q=-0.0 size=N/A time=00:11:15.75 bitrate=N/A speed=17.7x    frame=16432 fps=425 q=-0.0 size=N/A time=00:11:25.35 bitrate=N/A speed=17.7x    frame=16655 fps=425 q=-0.0 size=N/A time=00:11:34.65 bitrate=N/A speed=17.7x    frame=16832 fps=424 q=-0.0 size=N/A time=00:11:42.03 bitrate=N/A speed=17.7x    frame=17083 fps=425 q=-0.0 size=N/A time=00:11:52.50 bitrate=N/A speed=17.7x    frame=17330 fps=425 q=-0.0 size=N/A time=00:12:02.80 bitrate=N/A speed=17.7x    frame=17573 fps=426 q=-0.0 size=N/A time=00:12:12.94 bitrate=N/A speed=17.8x    frame=17819 fps=427 q=-0.0 size=N/A time=00:12:23.20 bitrate=N/A speed=17.8x    frame=18061 fps=427 q=-0.0 size=N/A time=00:12:33.29 bitrate=N/A speed=17.8x    frame=18287 fps=427 q=-0.0 size=N/A time=00:12:42.72 bitrate=N/A speed=17.8x    frame=18511 fps=427 q=-0.0 size=N/A time=00:12:52.06 bitrate=N/A speed=17.8x    frame=18739 fps=428 q=-0.0 size=N/A time=00:13:01.57 bitrate=N/A speed=17.8x    frame=18993 fps=428 q=-0.0 size=N/A time=00:13:12.16 bitrate=N/A speed=17.9x    frame=19250 fps=429 q=-0.0 size=N/A time=00:13:22.88 bitrate=N/A speed=17.9x    frame=19481 fps=429 q=-0.0 size=N/A time=00:13:32.52 bitrate=N/A speed=17.9x    frame=19744 fps=430 q=-0.0 size=N/A time=00:13:43.48 bitrate=N/A speed=17.9x    frame=20000 fps=431 q=-0.0 size=N/A time=00:13:54.16 bitrate=N/A speed=  18x    frame=20261 fps=432 q=-0.0 size=N/A time=00:14:05.09 bitrate=N/A speed=  18x    frame=20520 fps=433 q=-0.0 size=N/A time=00:14:15.85 bitrate=N/A speed=  18x    frame=20745 fps=433 q=-0.0 size=N/A time=00:14:25.23 bitrate=N/A speed=  18x    frame=20976 fps=433 q=-0.0 size=N/A time=00:14:34.87 bitrate=N/A speed=  18x    frame=21224 fps=433 q=-0.0 size=N/A time=00:14:45.21 bitrate=N/A speed=18.1x    frame=21454 fps=433 q=-0.0 size=N/A time=00:14:54.81 bitrate=N/A speed=18.1x    frame=21723 fps=434 q=-0.0 size=N/A time=00:15:06.03 bitrate=N/A speed=18.1x    frame=21999 fps=435 q=-0.0 size=N/A time=00:15:17.54 bitrate=N/A speed=18.2x    frame=22232 fps=435 q=-0.0 size=N/A time=00:15:27.25 bitrate=N/A speed=18.2x    frame=22439 fps=435 q=-0.0 size=N/A time=00:15:35.89 bitrate=N/A speed=18.2x    frame=22662 fps=435 q=-0.0 size=N/A time=00:15:45.19 bitrate=N/A speed=18.1x    frame=22927 fps=436 q=-0.0 size=N/A time=00:15:56.24 bitrate=N/A speed=18.2x    frame=23198 fps=437 q=-0.0 size=N/A time=00:16:07.54 bitrate=N/A speed=18.2x    frame=23449 fps=437 q=-0.0 size=N/A time=00:16:18.01 bitrate=N/A speed=18.2x    frame=23722 fps=438 q=-0.0 size=N/A time=00:16:29.40 bitrate=N/A speed=18.3x    frame=23983 fps=439 q=-0.0 size=N/A time=00:16:40.29 bitrate=N/A speed=18.3x    frame=24250 fps=439 q=-0.0 size=N/A time=00:16:51.42 bitrate=N/A speed=18.3x    frame=24483 fps=440 q=-0.0 size=N/A time=00:17:01.14 bitrate=N/A speed=18.3x    frame=24747 fps=440 q=-0.0 size=N/A time=00:17:12.15 bitrate=N/A speed=18.4x    frame=24990 fps=441 q=-0.0 size=N/A time=00:17:22.29 bitrate=N/A speed=18.4x    frame=25260 fps=441 q=-0.0 size=N/A time=00:17:33.55 bitrate=N/A speed=18.4x    frame=25515 fps=442 q=-0.0 size=N/A time=00:17:44.18 bitrate=N/A speed=18.4x    frame=25779 fps=442 q=-0.0 size=N/A time=00:17:55.19 bitrate=N/A speed=18.5x    frame=26039 fps=443 q=-0.0 size=N/A time=00:18:06.04 bitrate=N/A speed=18.5x    frame=26276 fps=443 q=-0.0 size=N/A time=00:18:15.92 bitrate=N/A speed=18.5x    frame=26506 fps=443 q=-0.0 size=N/A time=00:18:25.52 bitrate=N/A speed=18.5x    frame=26737 fps=443 q=-0.0 size=N/A time=00:18:35.15 bitrate=N/A speed=18.5x    frame=26984 fps=443 q=-0.0 size=N/A time=00:18:45.45 bitrate=N/A speed=18.5x    frame=27237 fps=444 q=-0.0 size=N/A time=00:18:56.00 bitrate=N/A speed=18.5x    frame=27502 fps=444 q=-0.0 size=N/A time=00:19:07.06 bitrate=N/A speed=18.5x    frame=27756 fps=445 q=-0.0 size=N/A time=00:19:17.65 bitrate=N/A speed=18.6x    frame=27984 fps=445 q=-0.0 size=N/A time=00:19:27.16 bitrate=N/A speed=18.6x    frame=28230 fps=445 q=-0.0 size=N/A time=00:19:37.42 bitrate=N/A speed=18.6x    frame=28474 fps=445 q=-0.0 size=N/A time=00:19:47.60 bitrate=N/A speed=18.6x    frame=28718 fps=446 q=-0.0 size=N/A time=00:19:57.77 bitrate=N/A speed=18.6x    frame=28971 fps=446 q=-0.0 size=N/A time=00:20:08.33 bitrate=N/A speed=18.6x    frame=29230 fps=446 q=-0.0 size=N/A time=00:20:19.13 bitrate=N/A speed=18.6x    frame=29470 fps=447 q=-0.0 size=N/A time=00:20:29.14 bitrate=N/A speed=18.6x    frame=29714 fps=447 q=-0.0 size=N/A time=00:20:39.32 bitrate=N/A speed=18.6x    frame=29953 fps=447 q=-0.0 size=N/A time=00:20:49.28 bitrate=N/A speed=18.6x    frame=30159 fps=446 q=-0.0 size=N/A time=00:20:57.88 bitrate=N/A speed=18.6x    frame=30406 fps=447 q=-0.0 size=N/A time=00:21:08.18 bitrate=N/A speed=18.6x    frame=30675 fps=447 q=-0.0 size=N/A time=00:21:19.40 bitrate=N/A speed=18.7x    frame=30902 fps=447 q=-0.0 size=N/A time=00:21:28.87 bitrate=N/A speed=18.7x    frame=31131 fps=447 q=-0.0 size=N/A time=00:21:38.42 bitrate=N/A speed=18.7x    frame=31354 fps=447 q=-0.0 size=N/A time=00:21:47.72 bitrate=N/A speed=18.6x    frame=31609 fps=447 q=-0.0 size=N/A time=00:21:58.35 bitrate=N/A speed=18.7x    frame=31852 fps=448 q=-0.0 size=N/A time=00:22:08.49 bitrate=N/A speed=18.7x    frame=32085 fps=448 q=-0.0 size=N/A time=00:22:18.21 bitrate=N/A speed=18.7x    frame=32341 fps=448 q=-0.0 size=N/A time=00:22:28.88 bitrate=N/A speed=18.7x    frame=32538 fps=447 q=-0.0 size=N/A time=00:22:37.10 bitrate=N/A speed=18.7x    frame=32754 fps=447 q=-0.0 size=N/A time=00:22:46.11 bitrate=N/A speed=18.7x    frame=32941 fps=447 q=-0.0 size=N/A time=00:22:53.91 bitrate=N/A speed=18.6x    frame=33147 fps=446 q=-0.0 size=N/A time=00:23:02.50 bitrate=N/A speed=18.6x    frame=33330 fps=446 q=-0.0 size=N/A time=00:23:10.13 bitrate=N/A speed=18.6x    frame=33570 fps=446 q=-0.0 size=N/A time=00:23:20.14 bitrate=N/A speed=18.6x    frame=33814 fps=446 q=-0.0 size=N/A time=00:23:30.32 bitrate=N/A speed=18.6x    frame=34008 fps=446 q=-0.0 size=N/A time=00:23:38.41 bitrate=N/A speed=18.6x    frame=34188 fps=445 q=-0.0 size=N/A time=00:23:45.92 bitrate=N/A speed=18.6x    [Parsed_psnr_10 @ 0000025afcc6a640] PSNR y:48.067451 u:50.251024 v:50.057040 average:48.657877 min:36.353682 max:inf
[out#0/null @ 0000025afcc44340] video:14697KiB audio:267708KiB subtitle:0KiB other streams:0KiB global headers:0KiB muxing overhead: unknown
frame=34204 fps=445 q=-0.0 Lsize=N/A time=00:23:46.59 bitrate=N/A speed=18.6x    
